<svg version="1.1" viewBox="0.0 0.0 960.0 600.0" fill="none" stroke="none" stroke-linecap="square" stroke-miterlimit="10" xmlns:xlink="http://www.w3.org/1999/xlink" xmlns="http://www.w3.org/2000/svg"><clipPath id="p.0"><path d="m0 0l960.0 0l0 600.0l-960.0 0l0 -600.0z" clip-rule="nonzero"/></clipPath><g clip-path="url(#p.0)"><defs><linearGradient id="p.1" gradientUnits="userSpaceOnUse" gradientTransform="matrix(33.2127404646376 0.0 0.0 33.2127404646376 0.0 0.0)" spreadMethod="pad" x1="-9.032678297637533" y1="9.03264557591087" x2="14.452233415370246" y2="32.51764187149512"><stop offset="0.0" stop-color="#434343"/><stop offset="1.0" stop-color="#737373"/></linearGradient></defs><path fill="url(#p.1)" d="m0 0l960.0 0l0 600.0l-960.0 0z" fill-rule="evenodd"/><path fill="#000000" fill-opacity="0.0" d="m274.00433 73.85723l511.62207 239.1181l-99.68506 213.16534l-511.62207 -239.1181z" fill-rule="evenodd"/><path fill="#999999" d="m278.68893 217.1593l7.065399 5.768524q-7.133026 8.687607 -16.095306 10.811401q-8.96225 2.1238098 -18.417984 -2.2955322q-9.781296 -4.571518 -14.050613 -11.413376q-4.2627106 -6.856018 -3.9480743 -15.901779q0.3354187 -9.053314 4.392807 -17.729599q4.4214325 -9.454758 11.320633 -14.80217q6.9133606 -5.340805 15.288162 -5.876465q8.381439 -0.5497894 16.393341 3.1947327q9.073517 4.2407227 13.095001 11.760132q4.035614 7.526016 2.551941 17.042984l-8.751587 -1.8308411q0.99606323 -7.588974 -1.6066589 -12.461853q-2.5961304 -4.887024 -8.668732 -7.7252045q-6.978546 -3.2615814 -13.226013 -2.1111145q-6.247467 1.1504822 -10.77861 5.8971863q-4.531128 4.746704 -7.3309326 10.733765q-3.6139374 7.7279816 -4.057144 14.540497q-0.43658447 6.7983704 2.9684143 11.8737335q3.4116058 5.061203 8.94632 7.6479797q6.737915 3.149109 13.208588 1.4475555q6.491455 -1.7090912 11.70105 -8.570557zm7.623871 29.4169l28.30249 -60.52173l8.011871 3.7445374l-24.95993 53.374054l29.811005 13.932861l-3.3425293 7.1476746l-37.822906 -17.677399zm40.709137 19.026337l51.54547 -49.6586l8.634705 4.0356445l-3.5307617 72.099365l-9.130157 -4.267212l1.5080261 -21.630463l-25.295471 -11.822418l-15.224487 15.219788l-8.507324 -3.9761047zm29.090424 -16.690216l20.511017 9.586273l1.523529 -19.708755q0.67993164 -8.978531 1.5753174 -14.544861q-3.8811035 5.274719 -8.670898 10.0212555l-14.938965 14.646088zm40.318817 25.432373l7.8634033 2.881775q-1.5801697 4.780609 -0.9902344 8.609283q0.60409546 3.835266 3.8826904 7.558014q3.299347 3.7151794 8.466034 6.129944q4.5863037 2.1435242 8.718079 2.4188538q4.1459045 0.2819519 6.964081 -1.2812195q2.8247375 -1.5773315 4.1419067 -4.3939514q1.3304138 -2.8449097 0.66708374 -5.742035q-0.6491699 -2.890503 -3.7676697 -6.1072083q-1.9846191 -2.1004028 -9.388794 -7.9927673q-7.4042053 -5.892395 -9.925018 -9.243713q-3.2724915 -4.2890625 -3.8204956 -8.650024q-0.54797363 -4.360977 1.3979797 -8.522202q2.1445312 -4.585846 6.594879 -7.352371q4.4711 -2.7740784 10.434265 -2.5051575q5.9631653 0.2689209 12.078247 3.1269379q6.7237854 3.1425018 10.842834 7.7237244q4.1256714 4.5670624 4.913513 10.074966q0.80859375 5.5003967 -1.4677734 10.921448l-7.9577026 -3.0120544q2.0644531 -6.0375366 -0.13256836 -10.634552q-2.196991 -4.5970306 -9.175568 -7.858612q-7.2616577 -3.3939056 -11.832489 -2.2876892q-4.570862 1.1062012 -6.331482 4.8711243q-1.5223694 3.255371 -0.15878296 6.4625244q1.3352356 3.1939087 10.055664 9.960175q8.734589 6.772888 11.604706 10.11499q4.134857 4.9162903 4.9071045 9.830505q0.7788696 4.9000854 -1.5046692 9.783142q-2.2570496 4.8264465 -7.0303955 7.804199q-4.759186 2.984375 -11.052002 2.940857q-6.286194 -0.05770874 -12.769318 -3.087738q-8.2100525 -3.8371582 -12.65448 -8.829163q-4.4302673 -4.985382 -5.336487 -11.27301q-0.90618896 -6.2875977 1.7634583 -12.438995zm56.39386 26.356964l7.863373 2.8817444q-1.5801392 4.780609 -0.99020386 8.609283q0.60409546 3.8352966 3.88266 7.558014q3.2993774 3.7151794 8.466034 6.129944q4.5863037 2.1435242 8.718079 2.4188538q4.145935 0.2819519 6.964081 -1.2812195q2.824768 -1.5773315 4.1419373 -4.3939514q1.3304138 -2.8449097 0.66708374 -5.742035q-0.64920044 -2.890503 -3.7676697 -6.1072083q-1.9846191 -2.1003723 -9.388824 -7.9927673q-7.404175 -5.892395 -9.925018 -9.243713q-3.272461 -4.2890625 -3.820465 -8.650024q-0.54800415 -4.3609924 1.3979797 -8.522186q2.1445312 -4.585846 6.5948486 -7.3523865q4.4711 -2.7740784 10.434296 -2.5051575q5.9631653 0.2689209 12.078247 3.1269531q6.723755 3.1424866 10.842804 7.723694q4.1256714 4.5670776 4.913513 10.074982q0.80862427 5.5003967 -1.4677429 10.921478l-7.9577026 -3.012085q2.0644531 -6.0375366 -0.13256836 -10.634552q-2.1970215 -4.5970154 -9.175568 -7.858612q-7.2616577 -3.3938904 -11.83252 -2.2876892q-4.5708313 1.1062012 -6.331482 4.8711243q-1.5223389 3.255371 -0.15878296 6.4625244q1.3352356 3.1939087 10.055695 9.960175q8.734589 6.772888 11.604706 10.11499q4.1348267 4.9162903 4.907074 9.830505q0.7788696 4.9000854 -1.5046387 9.783142q-2.2570496 4.8264465 -7.030426 7.804199q-4.759186 2.984375 -11.052002 2.940857q-6.286194 -0.05770874 -12.769287 -3.087738q-8.210083 -3.8371582 -12.6545105 -8.829163q-4.4302673 -4.985382 -5.3364563 -11.27298q-0.90618896 -6.287628 1.7634583 -12.438995zm51.39035 47.716248l28.30249 -60.52173l8.011902 3.7445374l-28.30249 60.52173l-8.011902 -3.7445374zm22.542175 10.5355835l28.30249 -60.52173l40.82379 19.079956l-3.3425293 7.1476746l-32.81195 -15.335419l-8.763428 18.739655l28.395508 13.271271l-3.3425903 7.147705l-28.395447 -13.271301l-12.853943 27.486725l-8.011902 -3.7445374zm52.594604 24.581268l28.30249 -60.52173l8.011902 3.7445374l-28.30249 60.52173l-8.011902 -3.7445374zm22.287354 10.416534l28.30249 -60.52173l43.768127 20.456024l-3.3425293 7.1476746l-35.756226 -16.711487l-8.664185 18.527344l33.491394 15.652954l-3.3226929 7.1052246l-33.491394 -15.652954l-9.630554 20.59378l37.157654 17.366455l-3.3425903 7.1476746l-45.169495 -21.110962zm56.23816 26.28415l28.30249 -60.52173l20.850708 9.745056q7.0493774 3.2946777 10.361816 5.9121704q4.638977 3.6169128 6.8499756 8.4791565q2.8914795 6.2841187 2.3241577 13.694031q-0.56073 7.395752 -4.3467407 15.49173q-3.2233887 6.892914 -7.3258057 11.460541q-4.102417 4.5676575 -8.256958 6.886017q-4.147888 2.3042297 -8.088684 2.9115295q-3.920044 0.59976196 -8.63562 -0.3451233q-4.701477 -0.93829346 -10.193726 -3.5052185l-21.841614 -10.20816zm11.354431 -3.4031372l12.909607 6.0336q5.987732 2.7984924 9.915405 3.2888794q3.9343262 0.47625732 6.9050293 -0.6016846q4.175598 -1.5151367 8.011414 -5.5864563q3.8358765 -4.07135 7.0394287 -10.921783q4.441284 -9.497223 3.7099 -16.048065q-0.73132324 -6.5508423 -4.3760986 -10.375732q-2.6515503 -2.7397766 -9.785828 -6.0741577l-12.711426 -5.940979l-21.617432 46.22638z" fill-rule="nonzero"/></g></svg>