<svg version="1.1" viewBox="0.0 0.0 960.0 600.0" fill="none" stroke="none" stroke-linecap="square" stroke-miterlimit="10" xmlns:xlink="http://www.w3.org/1999/xlink" xmlns="http://www.w3.org/2000/svg"><clipPath id="p.0"><path d="m0 0l960.0 0l0 600.0l-960.0 0l0 -600.0z" clip-rule="nonzero"/></clipPath><g clip-path="url(#p.0)"><defs><linearGradient id="p.1" gradientUnits="userSpaceOnUse" gradientTransform="matrix(33.2127404646376 0.0 0.0 33.2127404646376 0.0 0.0)" spreadMethod="pad" x1="-9.032678297637533" y1="9.03264557591087" x2="14.452233415370246" y2="32.51764187149512"><stop offset="0.0" stop-color="#373737"/><stop offset="0.67" stop-color="#555555"/><stop offset="1.0" stop-color="#737373"/></linearGradient></defs><path fill="url(#p.1)" d="m0 0l960.0 0l0 600.0l-960.0 0z" fill-rule="evenodd"/><path fill="#000000" fill-opacity="0.0" d="m287.4869 62.27599l496.88187 268.44092l-111.90552 207.02362l-496.88187 -268.44092z" fill-rule="evenodd"/><path fill="#999999" d="m283.84305 205.61623l6.7183533 6.1692047q-7.625702 8.25856 -16.696228 9.858154q-9.070526 1.5995941 -18.25357 -3.361557q-9.499237 -5.1319733 -13.363892 -12.210266q-3.8572235 -7.0920258 -3.017624 -16.104218q0.8607788 -9.018524 5.4153595 -17.444443q4.9632416 -9.181915 12.1614685 -14.119522q7.2119446 -4.930191 15.60376 -4.9784393q8.399261 -0.06199646 16.180084 4.141617q8.81189 4.76062 12.38974 12.5009q3.5916138 7.7477264 1.5575562 17.162415l-8.630432 -2.3361206q1.4352417 -7.51828 -0.8800354 -12.534103q-2.3078308 -5.0295715 -8.205322 -8.215698q-6.777313 -3.6614532 -13.081085 -2.8758392q-6.303772 0.785614 -11.102997 5.261078q-4.7992554 4.475464 -7.942154 10.289764q-4.056778 7.5049896 -4.894989 14.280243q-0.8307953 6.76149 2.2736053 12.026062q3.111847 5.250824 8.486969 8.154739q6.5436096 3.5351868 13.102203 2.2124023q6.579773 -1.3291168 12.17923 -7.8763733zm5.902069 29.810028l31.77066 -58.7753l7.7808533 4.2036133l-28.018524 51.833878l28.951355 15.640991l-3.7521667 6.9414215l-36.732178 -19.844604zm39.535187 21.358932l54.343384 -46.580368l8.385712 4.5303955l-7.7132874 71.77232l-8.866852 -4.790344l2.7620544 -21.506287l-24.56604 -13.27182l-16.082977 14.309662l-8.261993 -4.463562zm30.010986 -14.972153l19.919495 10.761551l2.665924 -19.58693q1.2003784 -8.923859 2.417633 -14.428757q-4.1809998 5.040344 -9.238464 9.500626l-15.764587 13.7535095zm38.773376 27.731491l7.6827087 3.3336487q-1.8551941 4.6807556 -1.488678 8.537201q0.38024902 3.8638916 3.4370422 7.7707825q3.0779724 3.9005737 8.095673 6.6113586q4.4540405 2.406311 8.562836 2.9212036q4.1225586 0.52230835 7.026764 -0.87454224q2.9116516 -1.410553 4.3902283 -4.1459045q1.4934082 -2.7628174 0.9995117 -5.693573q-0.48016357 -2.9233093 -3.4065247 -6.315735q-1.8592529 -2.2121277 -8.908661 -8.524658q-7.049408 -6.3125305 -9.371277 -9.804596q-3.0177917 -4.4718933 -3.3115234 -8.85733q-0.2937317 -4.385437 1.890686 -8.42659q2.407318 -4.4535065 7.0108643 -6.956833q4.6247253 -2.5096588 10.562225 -1.8948059q5.9375 0.61486816 11.876251 3.8232727q6.529846 3.527771 10.375824 8.340515q3.8533936 4.798996 4.3199463 10.343353q0.48770142 5.5380554 -2.099762 10.8177185l-7.769287 -3.4692078q2.4117126 -5.90744 0.48544312 -10.624298q-1.926239 -4.716858 -8.703552 -8.378311q-7.052246 -3.8099823 -11.679657 -2.971161q-4.627411 0.83880615 -6.6037903 4.4950867q-1.7088928 3.161438 -0.53396606 6.4423676q1.1474609 3.2660522 9.460114 10.527466q8.326416 7.2688293 10.997528 10.772003q3.8422852 5.148163 4.3277283 10.098938q0.4928894 4.9370117 -2.0704346 9.679169q-2.5336304 4.687195 -7.471924 7.3826294q-4.9245605 2.7028503 -11.204224 2.2938538q-6.2722473 -0.42276 -12.56839 -3.8242493q-7.973297 -4.3075867 -12.120239 -9.549347q-4.1331787 -5.2342834 -4.672577 -11.563904q-0.5393982 -6.329651 2.4830933 -12.315521zm54.76761 29.588226l7.6827087 3.3336792q-1.8552246 4.680725 -1.4887085 8.537201q0.38027954 3.8638916 3.4370728 7.7707825q3.0779724 3.9005432 8.095642 6.6113586q4.454071 2.406311 8.562866 2.9212036q4.1225586 0.52230835 7.026764 -0.87454224q2.911621 -1.410553 4.3901978 -4.1459045q1.4934387 -2.7628174 0.99954224 -5.693573q-0.48016357 -2.9233398 -3.4065247 -6.3157654q-1.8592529 -2.2120972 -8.908661 -8.524628q-7.049408 -6.3125305 -9.371277 -9.804626q-3.0178223 -4.471863 -3.3115234 -8.8573q-0.2937317 -4.385437 1.890686 -8.426605q2.407318 -4.453491 7.0108643 -6.9568176q4.6247253 -2.509674 10.562225 -1.8948059q5.9375 0.61486816 11.876221 3.8232727q6.5298767 3.527771 10.3758545 8.340515q3.8533936 4.7989807 4.3199463 10.343353q0.4876709 5.5380554 -2.099762 10.8177185l-7.7693176 -3.4692383q2.4117126 -5.9074097 0.48547363 -10.624268q-1.9262695 -4.716858 -8.703583 -8.378326q-7.052246 -3.809967 -11.679657 -2.971161q-4.6273804 0.83880615 -6.60376 4.4950867q-1.7089233 3.161438 -0.53396606 6.442383q1.1474609 3.2660522 9.460114 10.527466q8.326416 7.268799 10.997528 10.771973q3.8422546 5.1481934 4.3277283 10.0989685q0.4928894 4.9370117 -2.070465 9.679169q-2.5336304 4.6871643 -7.471924 7.3826294q-4.92453 2.7028503 -11.204193 2.2938538q-6.2722473 -0.42276 -12.56842 -3.8242798q-7.973297 -4.3075867 -12.120239 -9.549316q-4.1331787 -5.2342834 -4.672577 -11.563934q-0.5393982 -6.3296204 2.4831238 -12.315521zm48.531677 50.62079l31.77069 -58.77527l7.7808228 4.2036133l-31.77066 58.77527l-7.7808533 -4.2036133zm21.89215 11.82724l31.77063 -58.77527l39.646606 21.419098l-3.7521362 6.9414062l-31.865784 -17.215485l-9.83728 18.198883l27.5766 14.898315l-3.7521362 6.941437l-27.5766 -14.898315l-14.429077 26.693542l-7.7808228 -4.2036133zm51.07788 27.59491l31.77069 -58.7753l7.7808228 4.2036133l-31.77063 58.7753l-7.780884 -4.2036133zm21.644653 11.6935425l31.77069 -58.77527l42.50598 22.963867l-3.7521362 6.941437l-34.72516 -18.760284l-9.72583 17.992706l32.525574 17.571991l-3.7298584 6.900177l-32.525574 -17.57196l-10.810669 19.999542l36.08606 19.495544l-3.7521362 6.9414062l-43.866943 -23.699158zm54.616394 29.506561l31.77069 -58.77527l20.24945 10.939758q6.8460083 3.698578 10.0008545 6.504059q4.4210205 3.8802795 6.345825 8.862732q2.5215454 6.4414673 1.5247192 13.805878q-0.9894409 7.3506775 -5.23938 15.213043q-3.6184082 6.6940002 -7.979248 11.0155945q-4.36084 4.3216248 -8.643066 6.394745q-4.2747803 2.0593872 -8.244202 2.436737q-3.9482422 0.3710327 -8.601013 -0.8461914q-4.639038 -1.2098083 -9.9729 -4.0914307l-21.211731 -11.459656zm11.53302 -2.737793l12.5372925 6.773285q5.8150024 3.141571 9.707642 3.859314q3.8999634 0.7039795 6.9282837 -0.19958496q4.256592 -1.2700195 8.32251 -5.1116333q4.065857 -3.8416138 7.6619873 -10.494385q4.9855347 -9.223175 4.6359863 -15.80542q-0.34960938 -6.582245 -3.7660522 -10.612396q-2.487915 -2.8891907 -9.416443 -6.632324l-12.344849 -6.6693115l-24.266357 44.892456z" fill-rule="nonzero"/></g></svg>
